<?xml version="1.0" encoding="iso-8859-1"?>
<!-- Generator: Adobe Illustrator 19.0.0, SVG Export Plug-In . SVG Version: 6.00 Build 0)  -->
<svg version="1.1" id="Layer_1" xmlns="http://www.w3.org/2000/svg" xmlns:xlink="http://www.w3.org/1999/xlink" x="0px" y="0px"
	 viewBox="0 0 512 512" style="enable-background:new 0 0 512 512;" xml:space="preserve">
<circle style="fill:#D35933;" cx="256" cy="256" r="256"/>
<path style="fill:#B54324;" d="M344.273,496.371c79.822-29.322,140.978-97.273,160.839-181.193L310.736,120.801l-48.685,110.237
	l-42.225-42.225l-18.358,3.493l53.889,53.889l-5.811,13.157l-34.004-34.004l-14.829,5.865l42.494,42.494l-2.803,6.347l-5.361-5.361
	l-7.644,8.014l-14.029-14.029l-12.657,2.277l19.396,19.396l-19.396,20.337l38.448,38.448l-15.586,3.155l20.102,20.102l-20.102,1.203
	l13.009,13.009l-1.169,0.907L344.273,496.371z"/>
<path style="fill:#D0D1D3;" d="M218.069,272.565l10.692,69.88v27.239c0,15.045,12.195,27.239,27.239,27.239
	c15.044,0,27.239-12.195,27.239-27.239v-27.239l11.966-69.88H218.069z"/>
<polygon style="fill:#FFC61B;" points="228.761,342.445 283.239,342.445 295.205,272.565 218.069,272.565 "/>
<polygon style="fill:#EAA22F;" points="295.205,272.565 255.426,272.565 255.426,342.447 283.239,342.447 "/>
<path style="fill:#FFC61B;" d="M306.443,148.346l-83.37,47.164c-8.551,4.837-19.403,1.827-24.238-6.723l0,0
	c-4.837-8.551-1.827-19.403,6.723-24.24l83.368-47.163c8.551-4.837,19.403-1.827,24.238,6.723l0,0
	C318.004,132.656,314.994,143.51,306.443,148.346z"/>
<path style="fill:#EAA22F;" d="M313.166,124.107L313.166,124.107c-4.837-8.549-15.689-11.559-24.238-6.723l-33.501,18.953v40.87
	l51.017-28.862C314.992,143.51,318.004,132.656,313.166,124.107z"/>
<path style="fill:#FEE187;" d="M306.443,188.085l-83.37,47.163c-8.551,4.837-19.403,1.827-24.238-6.723l0,0
	c-4.837-8.551-1.827-19.403,6.723-24.24l83.368-47.163c8.551-4.837,19.403-1.827,24.238,6.723l0,0
	C318.004,172.396,314.994,183.248,306.443,188.085z"/>
<g>
	<path style="fill:#FFC61B;" d="M313.166,163.845L313.166,163.845c-4.837-8.549-15.689-11.561-24.238-6.723l-33.501,18.953v40.87
		l51.017-28.862C314.992,183.248,318.004,172.396,313.166,163.845z"/>
	<path style="fill:#FFC61B;" d="M306.443,227.823l-83.37,47.163c-8.551,4.837-19.403,1.827-24.238-6.723l0,0
		c-4.837-8.551-1.827-19.403,6.723-24.24l83.37-47.163c8.551-4.837,19.403-1.827,24.238,6.723l0,0
		C318.004,212.133,314.994,222.985,306.443,227.823z"/>
</g>
<path style="fill:#EAA22F;" d="M313.166,203.583c-4.837-8.549-15.689-11.561-24.238-6.723l-33.501,18.953v40.87l51.017-28.86
	C314.992,222.985,318.004,212.133,313.166,203.583z"/>
<path style="fill:#FEE187;" d="M306.443,267.56l-83.37,47.163c-8.551,4.837-19.403,1.827-24.238-6.723l0,0
	c-4.837-8.551-1.827-19.403,6.723-24.24l83.37-47.163c8.551-4.837,19.403-1.827,24.238,6.723l0,0
	C318.004,251.871,314.994,262.723,306.443,267.56z"/>
<path style="fill:#FFC61B;" d="M313.166,243.322c-4.837-8.549-15.689-11.561-24.238-6.723l-33.501,18.953v40.87l51.017-28.86
	C314.992,262.723,318.004,251.871,313.166,243.322z"/>
<path style="fill:#59595B;" d="M256,396.924L256,396.924c-15.045,0-27.239-12.195-27.239-27.239v-27.239h54.479v27.239
	C283.239,384.729,271.045,396.924,256,396.924z"/>
<path style="fill:#272525;" d="M255.426,342.447v54.45c0.193,0.003,0.381,0.029,0.574,0.029c15.045,0,27.239-12.195,27.239-27.239
	v-27.239H255.426z"/>
<g>
	<path style="fill:#A6A8AA;" d="M266.074,353.604h-39.958c-1.731,0-3.134-1.403-3.134-3.134l0,0c0-1.731,1.403-3.134,3.134-3.134
		h39.958c1.731,0,3.134,1.403,3.134,3.134l0,0C269.207,352.201,267.804,353.604,266.074,353.604z"/>
	<path style="fill:#A6A8AA;" d="M266.074,374.91h-39.958c-1.731,0-3.134-1.403-3.134-3.132l0,0c0-1.731,1.403-3.132,3.134-3.132
		h39.958c1.731,0,3.134,1.403,3.134,3.132l0,0C269.207,373.507,267.804,374.91,266.074,374.91z"/>
	<path style="fill:#A6A8AA;" d="M285.884,364.256h-39.958c-1.731,0-3.134-1.403-3.134-3.132l0,0c0-1.731,1.403-3.134,3.134-3.134
		h39.958c1.731,0,3.134,1.403,3.134,3.134l0,0C289.018,362.853,287.615,364.256,285.884,364.256z"/>
</g>
<g>
	<path style="fill:#808183;" d="M266.074,347.336h-10.649v6.266h10.649c1.731,0,3.134-1.403,3.134-3.132
		C269.207,348.739,267.804,347.336,266.074,347.336z"/>
	<path style="fill:#808183;" d="M266.074,368.643h-10.649v6.266h10.649c1.731,0,3.134-1.403,3.134-3.134
		C269.207,370.045,267.804,368.643,266.074,368.643z"/>
	<path style="fill:#808183;" d="M285.884,357.99h-30.458v6.266h30.458c1.731,0,3.134-1.402,3.134-3.132
		S287.615,357.99,285.884,357.99z"/>
</g>
<g>
</g>
<g>
</g>
<g>
</g>
<g>
</g>
<g>
</g>
<g>
</g>
<g>
</g>
<g>
</g>
<g>
</g>
<g>
</g>
<g>
</g>
<g>
</g>
<g>
</g>
<g>
</g>
<g>
</g>
</svg>
