<?xml version="1.0" encoding="iso-8859-1"?>
<!-- Generator: Adobe Illustrator 19.0.0, SVG Export Plug-In . SVG Version: 6.00 Build 0)  -->
<svg version="1.1" id="Layer_1" xmlns="http://www.w3.org/2000/svg" xmlns:xlink="http://www.w3.org/1999/xlink" x="0px" y="0px"
	 viewBox="0 0 512 512" style="enable-background:new 0 0 512 512;" xml:space="preserve">
<path style="fill:#F95428;" d="M256,0c139.816,0,253.159,113.343,253.159,253.159c0,66.775-25.865,127.498-68.106,172.734
	c0,0-7.225,54.125,14.351,86.107c0,0-47.579-4.538-82.162-34.426C338.187,495.926,298.31,506.32,256,506.32
	c-139.816,0-253.159-113.343-253.159-253.159S116.183,0,256,0z"/>
<g>
	<path style="fill:#FFFFFF;" d="M118.044,292.207h3.858c6.65,0,12.059,5.41,12.059,12.059c0,5.2,4.215,9.415,9.415,9.415
		c5.2,0,9.415-4.215,9.415-9.415c0-17.033-13.856-30.89-30.89-30.89h-3.858c-19.16,0-34.747,15.587-34.747,34.747
		c0,19.16,15.587,34.746,34.747,34.746c8.776,0,15.917,7.141,15.917,15.917c0,8.776-7.141,15.917-15.917,15.917h-3.858
		c-6.65,0-12.059-5.41-12.059-12.059c0-5.2-4.215-9.415-9.415-9.415s-9.415,4.215-9.415,9.415c0,17.033,13.856,30.89,30.89,30.89
		h3.858c19.16,0,34.747-15.587,34.747-34.747c0-19.16-15.587-34.747-34.747-34.747c-8.776,0-15.917-7.141-15.917-15.916
		C102.127,299.346,109.268,292.207,118.044,292.207z"/>
	<path style="fill:#FFFFFF;" d="M332.639,360.61c-5.2,0-9.415,4.215-9.415,9.415v4.679h-31.833v-91.912
		c0-5.2-4.215-9.415-9.415-9.415s-9.415,4.215-9.415,9.415V384.12c0,5.2,4.215,9.415,9.415,9.415h50.663
		c5.2,0,9.415-4.215,9.415-9.415v-14.094C342.054,364.824,337.839,360.61,332.639,360.61z"/>
	<path style="fill:#FFFFFF;" d="M419.287,309.091c5.2,0,9.415-4.215,9.415-9.415V282.79c0-5.2-4.215-9.415-9.415-9.415h-50.664
		c-5.2,0-9.415,4.215-9.415,9.415v101.327c0,5.2,4.215,9.415,9.415,9.415h50.664c5.2,0,9.415-4.215,9.415-9.415v-14.094
		c0-5.2-4.215-9.415-9.415-9.415s-9.415,4.215-9.415,9.415v4.679h-31.834v-31.834h19.165c5.2,0,9.415-4.215,9.415-9.415
		s-4.215-9.415-9.415-9.415h-19.165v-31.833h31.834v7.47C409.871,304.877,414.087,309.091,419.287,309.091z"/>
	<path style="fill:#FFFFFF;" d="M209.987,274.031c-18.978,0-34.419,15.441-34.419,34.419v75.013c0,5.2,4.215,9.415,9.415,9.415
		c5.2,0,9.415-4.215,9.415-9.415v-24.354h31.178v24.354c0,5.2,4.215,9.415,9.415,9.415c5.2,0,9.415-4.215,9.415-9.415V308.45
		C244.406,289.472,228.965,274.031,209.987,274.031z M194.398,340.277V308.45c0-8.596,6.993-15.589,15.589-15.589
		c8.596,0,15.589,6.993,15.589,15.589v31.827H194.398z"/>
	<path style="fill:#FFFFFF;" d="M254.233,101.309c-5.2,0-9.415,4.215-9.415,9.415v125.081c0,5.2,4.215,9.415,9.415,9.415
		c5.2,0,9.415-4.215,9.415-9.415V110.725C263.648,105.525,259.432,101.309,254.233,101.309z"/>
	<path style="fill:#FFFFFF;" d="M365.873,197.563c0-5.2-4.215-9.415-9.415-9.415h-20.625c-5.2,0-9.415,4.215-9.415,9.415
		c0,5.2,4.215,9.415,9.415,9.415h11.209v1.927c0,9.641-7.844,17.485-17.485,17.485c-9.641,0-17.485-7.844-17.485-17.485v-71.281
		c0-9.641,7.844-17.485,17.485-17.485c9.641,0,17.485,7.844,17.485,17.485v2.55c0,5.2,4.215,9.415,9.415,9.415
		c5.2,0,9.415-4.215,9.415-9.415v-2.55c0-20.025-16.291-36.315-36.315-36.315c-20.025,0-36.315,16.291-36.315,36.315v71.281
		c0,20.025,16.291,36.315,36.315,36.315c20.025,0,36.315-16.291,36.315-36.315V197.563z"/>
	<path style="fill:#FFFFFF;" d="M221.954,201.441c0-15.538-8.143-29.199-20.377-36.972c6.241-6.714,10.069-15.7,10.069-25.569
		c0-20.728-16.864-37.591-37.591-37.591h-18.514c-5.2,0-9.415,4.215-9.415,9.415v56.351v68.729c0,5.2,4.215,9.415,9.415,9.415
		h22.633C202.314,245.221,221.954,225.581,221.954,201.441z M164.956,120.14h9.099c10.345,0,18.76,8.416,18.76,18.76
		c0,10.345-8.416,18.76-18.76,18.76h-9.099V120.14z M164.956,176.492h9.099h4.12c13.758,0,24.95,11.192,24.95,24.949
		c0,13.758-11.192,24.95-24.95,24.95h-13.217v-49.899H164.956z"/>
</g>
<g>
</g>
<g>
</g>
<g>
</g>
<g>
</g>
<g>
</g>
<g>
</g>
<g>
</g>
<g>
</g>
<g>
</g>
<g>
</g>
<g>
</g>
<g>
</g>
<g>
</g>
<g>
</g>
<g>
</g>
</svg>
