<?xml version="1.0" encoding="UTF-8" standalone="no"?>
<svg
   xmlns:dc="http://purl.org/dc/elements/1.1/"
   xmlns:cc="http://creativecommons.org/ns#"
   xmlns:rdf="http://www.w3.org/1999/02/22-rdf-syntax-ns#"
   xmlns:svg="http://www.w3.org/2000/svg"
   xmlns="http://www.w3.org/2000/svg"
   width="106.43855mm"
   height="100.84077mm"
   viewBox="0 0 377.14442 357.3098"
   id="svg2"
   version="1.1">
  <defs
     id="defs4" />
  <metadata
     id="metadata7">
    <rdf:RDF>
      <cc:Work
         rdf:about="">
        <dc:format>image/svg+xml</dc:format>
        <dc:type
           rdf:resource="http://purl.org/dc/dcmitype/StillImage" />
        <dc:title></dc:title>
      </cc:Work>
    </rdf:RDF>
  </metadata>
  <g
     transform="translate(-110.00002,-185.2207)"
     style="fill:#ffffff"
     id="layer1">
    <path
       style="fill:#ffffff"
       d="M 298.57227,185.2207 C 194.42725,185.22024 110.00061,269.646 110,373.79102 c 0.001,57.57953 26.30913,112.00331 71.43164,147.77148 l -0.004,0.0859 c 60.00063,24.1519 51.4877,20.71317 115,20.71317 67.98183,-2.91753 58.88998,5.23227 114.84571,-17.66825 47.66291,-35.52934 75.78098,-91.45422 75.87109,-150.90234 C 487.14392,269.646 402.71729,185.22024 298.57227,185.2207 Z m 2.14257,37.14258 c 84.81505,-4.6e-4 153.57165,68.75526 153.57227,153.57031 -0.0366,42.28095 -17.50347,82.67635 -48.2832,111.66407 -12.28849,-38.42823 -44.27686,-67.54762 -84.0586,-76.51954 19.01474,-10.18676 30.89113,-30.00075 30.91211,-51.57226 4.6e-4,-32.34876 -26.2235,-58.57273 -58.57226,-58.57227 -32.348,6.1e-4 -58.57078,26.22427 -58.57032,58.57227 0.028,22.12607 12.52195,42.34792 32.29688,52.27344 -36.1696,9.13616 -65.59753,35.04381 -78.92578,69.48437 -26.90301,-28.47554 -41.90691,-66.15576 -41.94141,-105.33008 6.2e-4,-84.81428 68.75603,-153.56969 153.57031,-153.57031 z"
       id="path3357" />
  </g>
  <g
     transform="translate(-110.00002,-185.2207)"
     id="layer2" />
</svg>
